# xmcd
#
# Track frame offsets:
#	150
#	19305
#	39109
#	60725
#	83421
#	102185
#	127140
#	146970
#	162705
#	186273
#	205241
#	219953
#
# Disc length: 3186 seconds
#
# Revision: 0
# Processed by: cddbd v1.5.2PL0 Copyright (c) Steve Scherf et al.
# Submitted via: dBpowerAMP V4.0
#
DISCID=ac0c700c
DTITLE=Neil Murray - Overnighter
DYEAR=2007
DGENRE=Blues
TTITLE0=With You Tonight
TTITLE1=I Can Go On
TTITLE2=Lights of Hay
TTITLE3=Drifting Ways
TTITLE4=Once in a While
TTITLE5=You'll Have to Follow
TTITLE6=Meet Me in Bedourie
TTITLE7=Key to my Heart
TTITLE8=Streets of Bourke
TTITLE9=Where my People Go
TTITLE10=Get Back to the Country
TTITLE11=Sing the Song
EXTD=Warner Music Label
EXTT0=
EXTT1=
EXTT2=
EXTT3=
EXTT4=
EXTT5=
EXTT6=
EXTT7=
EXTT8=
EXTT9=
EXTT10=
EXTT11=
PLAYORDER=
